<!--
/** SVG Name: Gregory Jacobs' Skills Program Knowledge - Animated SVG Icons
*** Description: Simple SVG Icon Animation
*** Version: 1.0
*** Author: Gregory Jacobs
*** License: GPL2
**/
-->
<svg version="1.1" id="Layer_1" xmlns="http://www.w3.org/2000/svg" xmlns:xlink="http://www.w3.org/1999/xlink" x="0px" y="0px"
	 viewBox="0 0 100 100" style="enable-background:new 0 0 100 100;" xml:space="preserve">
<style type="text/css">
	.st0{
		fill:none;
		stroke:#59B7A9;
		stroke-width:2;
		stroke-linejoin:round;
		stroke-miterlimit:10;
	}
	.st1{
		fill:none;
		stroke:#59B7A9;
		stroke-width:3;
		stroke-linejoin:square;
		stroke-linecap:square;
		stroke-miterlimit:10;
	}
	.st0,
	.st1 {
		stroke-dasharray: 600;
		stroke-dashoffset: 0;
		-webkit-animation: 	animate 15s 0s infinite alternate;
		-o-animation: 		animate 15s 0s infinite alternate;
		-moz-animation: 	animate 15s 0s infinite alternate;
		animation: 			animate 15s 0s infinite alternate;
	}		
	@-webkit-keyframes animate {
		0% {
			stroke-dashoffset:600;
		}
		100% {
			stroke-dashoffset:0;
		}
	}
	@keyframes animate {
		0% {
			stroke-dashoffset:600;
		}		
		100% {
			stroke-dashoffset:0;
		}
	}	
</style>
<path id="border" class="st0" d="M89,99H11C5.5,99,1,94.5,1,89V11C1,5.5,5.5,1,11,1h78c5.5,0,10,4.5,10,10v78C99,94.5,94.5,99,89,99
	z"/>
<g>
	<path class="st1" d="M33.1,60.5l-5.6,17h-7.2l18.4-53.9H47l18.4,53.9H58l-5.8-17H33.1z M50.8,55.1l-5.4-15.5
		c-1.2-3.5-2-6.7-2.8-9.8h-0.2c-0.8,3.1-1.6,6.5-2.7,9.8l-5.3,15.6H50.8z"/>
	<path class="st1" d="M76.7,27.9c0,2.4-1.7,4.3-4.5,4.3c-2.6,0-4.2-1.9-4.2-4.3s1.8-4.4,4.4-4.4C74.9,23.5,76.7,25.4,76.7,27.9z
		 M68.8,77.5V38.8h7v38.7H68.8z"/>
</g>
</svg>
