<!--
/** SVG Name: Gregory Jacobs' Skills Program Knowledge - Animated SVG Icons
*** Description: Simple SVG Icon Animation
*** Version: 1.0
*** Author: Gregory Jacobs
*** License: GPL2
**/
-->
<svg version="1.1" id="Layer_1" xmlns="http://www.w3.org/2000/svg" xmlns:xlink="http://www.w3.org/1999/xlink" x="0px" y="0px"
	 viewBox="0 0 100 100" style="enable-background:new 0 0 100 100;" xml:space="preserve">
<style type="text/css">
	.st0{
		fill:none;
		stroke:#59B7A9;
		stroke-width:2;
		stroke-linejoin:round;
		stroke-miterlimit:10;
	}
	.st1{
		fill:none;
		stroke:#59B7A9;
		stroke-width:3;
		stroke-linejoin:square;
		stroke-linecap:square;
		stroke-miterlimit:10;
	}
	.st0,
	.st1 {
		stroke-dasharray: 600;
		stroke-dashoffset: 0;
		-webkit-animation: 	animate 15s 0s infinite alternate;
		-o-animation: 		animate 15s 0s infinite alternate;
		-moz-animation: 	animate 15s 0s infinite alternate;
		animation: 			animate 15s 0s infinite alternate;
	}		
	@-webkit-keyframes animate {
		0% {
			stroke-dashoffset:600;
		}
		100% {
			stroke-dashoffset:0;
		}
	}
	@keyframes animate {
		0% {
			stroke-dashoffset:600;
		}		
		100% {
			stroke-dashoffset:0;
		}
	}	
</style>
<path id="border" class="st0" d="M89,99H11C5.5,99,1,94.5,1,89V11C1,5.5,5.5,1,11,1h78c5.5,0,10,4.5,10,10v78C99,94.5,94.5,99,89,99
	z"/>
<g>
	<path class="st1" d="M24.4,24.2c3.4-0.6,7.8-1,13.4-1c6.9,0,11.9,1.6,15.1,4.5c2.9,2.6,4.7,6.5,4.7,11.3c0,4.9-1.4,8.7-4.2,11.5
		c-3.8,3.9-9.7,5.9-16.5,5.9c-2.1,0-4-0.1-5.6-0.5v21.6h-7V24.2z M31.3,50.2c1.5,0.4,3.4,0.6,5.8,0.6c8.4,0,13.5-4.2,13.5-11.4
		c0-7.2-5.1-10.6-12.7-10.6c-3,0-5.4,0.2-6.6,0.6V50.2z"/>
	<path class="st1" d="M61.4,50.8c0-4.6-0.1-8.5-0.3-12.1h6.2l0.3,7.7h0.2c1.8-5.2,6.1-8.5,10.8-8.5c0.7,0,1.3,0.1,1.9,0.2v6.6
		c-0.7-0.2-1.4-0.2-2.4-0.2c-5,0-8.5,3.7-9.4,9c-0.2,1-0.2,2.2-0.2,3.3v20.6h-7V50.8z"/>
</g>
</svg>
