<!--
/** SVG Name: Gregory Jacobs' Skills Program Knowledge - Animated SVG Icons
*** Description: Simple SVG Icon Animation
*** Version: 1.0
*** Author: Gregory Jacobs
*** License: GPL2
**/
-->
<svg version="1.1" id="Layer_1" xmlns="http://www.w3.org/2000/svg" xmlns:xlink="http://www.w3.org/1999/xlink" x="0px" y="0px"
	 viewBox="0 0 100 100" style="enable-background:new 0 0 100 100;" xml:space="preserve">
<style type="text/css">
	.st0{
		fill:none;
		stroke:#59B7A9;
		stroke-width:2;
		stroke-linejoin:round;
		stroke-miterlimit:10;
	}
	.st1{
		fill:none;
		stroke:#59B7A9;
		stroke-width:3;
		stroke-linejoin:square;
		stroke-linecap:square;
		stroke-miterlimit:10;
	}
	.st0,
	.st1 {
		stroke-dasharray: 600;
		stroke-dashoffset: 0;
		-webkit-animation: 	animate 15s 0s infinite alternate;
		-o-animation: 		animate 15s 0s infinite alternate;
		-moz-animation: 	animate 15s 0s infinite alternate;
		animation: 			animate 15s 0s infinite alternate;
	}		
	@-webkit-keyframes animate {
		0% {
			stroke-dashoffset:600;
		}
		100% {
			stroke-dashoffset:0;
		}
	}
	@keyframes animate {
		0% {
			stroke-dashoffset:600;
		}		
		100% {
			stroke-dashoffset:0;
		}
	}	
</style>
<path id="border" class="st0" d="M89,99H11C5.5,99,1,94.5,1,89V11C1,5.5,5.5,1,11,1h78c5.5,0,10,4.5,10,10v78C99,94.5,94.5,99,89,99
	z"/>
<g>
	<path class="st1" d="M21.8,24.2c3.4-0.6,7.8-1,13.4-1c6.9,0,11.9,1.6,15.1,4.5c2.9,2.6,4.7,6.5,4.7,11.3c0,4.9-1.4,8.7-4.2,11.5
		c-3.8,3.9-9.7,5.9-16.5,5.9c-2.1,0-4-0.1-5.6-0.5v21.6h-7V24.2z M28.8,50.2c1.5,0.4,3.4,0.6,5.8,0.6c8.4,0,13.5-4.2,13.5-11.4
		c0-7.2-5.1-10.6-12.7-10.6c-3,0-5.4,0.2-6.6,0.6V50.2z"/>
	<path class="st1" d="M57.4,70.4c2.2,1.3,5.8,2.7,9.4,2.7c5,0,7.4-2.5,7.4-5.8c0-3.4-2-5.1-7.1-7c-7-2.6-10.3-6.3-10.3-11
		c0-6.2,5.1-11.4,13.4-11.4c3.9,0,7.4,1,9.4,2.4l-1.7,5.1c-1.5-1-4.3-2.3-7.9-2.3c-4.2,0-6.4,2.4-6.4,5.3c0,3.2,2.2,4.6,7.3,6.6
		C77.5,57.6,81,60.9,81,66.7c0,6.9-5.4,11.7-14.4,11.7c-4.2,0-8.2-1.1-10.9-2.7L57.4,70.4z"/>
</g>
</svg>
