<!--
/** SVG Name: Gregory Jacobs' Skills Program Knowledge - Animated SVG Icons
*** Description: Simple SVG Icon Animation
*** Version: 1.0
*** Author: Gregory Jacobs
*** License: GPL2
**/
-->
<svg version="1.1" id="Layer_1" xmlns="http://www.w3.org/2000/svg" xmlns:xlink="http://www.w3.org/1999/xlink" x="0px" y="0px"
	 viewBox="0 0 100 100" style="enable-background:new 0 0 100 100;" xml:space="preserve">
<style type="text/css">
	.st0{
		fill:none;
		stroke:#59B7A9;
		stroke-width:2;
		stroke-linejoin:round;
		stroke-miterlimit:10;
	}
	.st1{
		fill:none;
		stroke:#59B7A9;
		stroke-width:3;
		stroke-linejoin:square;
		stroke-linecap:square;
		stroke-miterlimit:10;
	}
	.st0,
	.st1 {
		stroke-dasharray: 600;
		stroke-dashoffset: 0;
		-webkit-animation: 	animate 15s 0s infinite alternate;
		-o-animation: 		animate 15s 0s infinite alternate;
		-moz-animation: 	animate 15s 0s infinite alternate;
		animation: 			animate 15s 0s infinite alternate;
	}		
	@-webkit-keyframes animate {
		0% {
			stroke-dashoffset:600;
		}
		100% {
			stroke-dashoffset:0;
		}
	}
	@keyframes animate {
		0% {
			stroke-dashoffset:600;
		}		
		100% {
			stroke-dashoffset:0;
		}
	}	
</style>
<path id="border" class="st0" d="M89,99H11C5.5,99,1,94.5,1,89V11C1,5.5,5.5,1,11,1h78c5.5,0,10,4.5,10,10v78C99,94.5,94.5,99,89,99
	z"/>
<g>
	<path class="st1" d="M22.8,60.5l-5.6,17H10l18.4-53.9h8.3l18.4,53.9h-7.4l-5.8-17H22.8z M40.5,55.1l-5.4-15.5
		c-1.2-3.5-2-6.7-2.8-9.8h-0.2c-0.8,3.1-1.6,6.5-2.7,9.8l-5.3,15.6H40.5z"/>
	<path class="st1" d="M61.7,59.4c0.2,9.5,6.2,13.4,13.3,13.4c5,0,8.2-0.9,10.7-2l1.3,5c-2.5,1.1-6.8,2.5-13,2.5
		c-11.9,0-19-7.9-19-19.6C55,47.1,61.9,38,73.2,38c12.7,0,16,11,16,18.2c0,1.4-0.1,2.5-0.2,3.3H61.7z M82.4,54.4
		C82.4,50,80.5,43,72.6,43c-7.2,0-10.2,6.5-10.8,11.4H82.4z"/>
</g>
</svg>
