<!--
/** SVG Name: Gregory Jacobs' Skills Program Knowledge - Animated SVG Icons
*** Description: Simple SVG Icon Animation
*** Version: 1.0
*** Author: Gregory Jacobs
*** License: GPL2
**/
-->
<svg version="1.1" id="Layer_1" xmlns="http://www.w3.org/2000/svg" xmlns:xlink="http://www.w3.org/1999/xlink" x="0px" y="0px"
	 viewBox="0 0 100 100" style="enable-background:new 0 0 100 100;" xml:space="preserve">
<style type="text/css">
	.st0{
		fill:none;
		stroke:#59B7A9;
		stroke-width:2;
		stroke-linejoin:round;
		stroke-miterlimit:10;
	}
	.st1{
		fill:none;
		stroke:#59B7A9;
		stroke-width:3;
		stroke-linejoin:square;
		stroke-linecap:square;
		stroke-miterlimit:10;
	}
	.st0,
	.st1 {
		stroke-dasharray: 600;
		stroke-dashoffset: 0;
		-webkit-animation: 	animate 15s 0s infinite alternate;
		-o-animation: 		animate 15s 0s infinite alternate;
		-moz-animation: 	animate 15s 0s infinite alternate;
		animation: 			animate 15s 0s infinite alternate;
	}		
	@-webkit-keyframes animate {
		0% {
			stroke-dashoffset:600;
		}
		100% {
			stroke-dashoffset:0;
		}
	}
	@keyframes animate {
		0% {
			stroke-dashoffset:600;
		}		
		100% {
			stroke-dashoffset:0;
		}
	}	
</style>
<path id="border" class="st0" d="M89,99H11C5.5,99,1,94.5,1,89V11C1,5.5,5.5,1,11,1h78c5.5,0,10,4.5,10,10v78C99,94.5,94.5,99,89,99
	z"/>
<g>
	<path class="st1" d="M20.2,60.5l-5.6,17H7.4l18.4-53.9h8.3l18.4,53.9h-7.4l-5.8-17H20.2z M38,55.1l-5.4-15.5
		c-1.2-3.5-2-6.7-2.8-9.8h-0.2c-0.8,3.1-1.6,6.5-2.7,9.8l-5.3,15.6H38z"/>
	<path class="st1" d="M56,49.2c0-4.1-0.1-7.3-0.3-10.5h6.2l0.4,6.4h0.2c1.9-3.6,6.4-7.2,12.8-7.2C80.6,38,89,41.2,89,54.4v23h-7
		V55.2c0-6.2-2.3-11.4-9-11.4c-4.6,0-8.2,3.3-9.4,7.2C63.2,51.8,63,53,63,54.2v23.3h-7V49.2z"/>
</g>
</svg>
