<!--
/** SVG Name: Gregory Jacobs' Skills Program Knowledge - Animated SVG Icons
*** Description: Simple SVG Icon Animation
*** Version: 1.0
*** Author: Gregory Jacobs
*** License: GPL2
**/
-->
<svg version="1.1" id="Layer_1" xmlns="http://www.w3.org/2000/svg" xmlns:xlink="http://www.w3.org/1999/xlink" x="0px" y="0px"
	 viewBox="0 0 100 100" style="enable-background:new 0 0 100 100;" xml:space="preserve">
<style type="text/css">
	.st0{
		fill:none;
		stroke:#59B7A9;
		stroke-width:2;
		stroke-linejoin:round;
		stroke-miterlimit:10;
	}
	.st1{
		fill:none;
		stroke:#59B7A9;
		stroke-width:3;
		stroke-linejoin:square;
		stroke-linecap:square;
		stroke-miterlimit:10;
	}
	.st0,
	.st1 {
		stroke-dasharray: 600;
		stroke-dashoffset: 0;
		-webkit-animation: 	animate 15s 0s infinite alternate;
		-o-animation: 		animate 15s 0s infinite alternate;
		-moz-animation: 	animate 15s 0s infinite alternate;
		animation: 			animate 15s 0s infinite alternate;
	}		
	@-webkit-keyframes animate {
		0% {
			stroke-dashoffset:600;
		}
		100% {
			stroke-dashoffset:0;
		}
	}
	@keyframes animate {
		0% {
			stroke-dashoffset:600;
		}		
		100% {
			stroke-dashoffset:0;
		}
	}	
</style>
<path id="border" class="st0" d="M89,99H11C5.5,99,1,94.5,1,89V11C1,5.5,5.5,1,11,1h78c5.5,0,10,4.5,10,10v78C99,94.5,94.5,99,89,99
	z"/>
<g>
	<path class="st1" d="M37.2,23.6v53.9h-7V23.6H37.2z"/>
	<path class="st1" d="M71.1,31.3v38c0,2.8,0.1,6,0.3,8.1h-5.1L66,72h-0.2c-1.7,3.5-5.5,6.2-10.6,6.2c-7.6,0-13.5-6.4-13.5-16
		c-0.1-10.5,6.5-16.8,14.1-16.8c4.9,0,8.1,2.3,9.5,4.7h0.1V31.3H71.1z M65.4,58.8c0-0.7-0.1-1.7-0.3-2.4c-0.8-3.6-4-6.6-8.3-6.6
		c-5.9,0-9.4,5.2-9.4,12.1c0,6.4,3.2,11.6,9.3,11.6c3.8,0,7.3-2.6,8.4-6.8c0.2-0.8,0.3-1.6,0.3-2.5V58.8z"/>
</g>
</svg>
