<!--
/** SVG Name: Gregory Jacobs' Skills Program Knowledge - Animated SVG Icons
*** Description: Simple SVG Icon Animation
*** Version: 1.0
*** Author: Gregory Jacobs
*** License: GPL2
**/
-->
<svg version="1.1" id="Layer_1" xmlns="http://www.w3.org/2000/svg" xmlns:xlink="http://www.w3.org/1999/xlink" x="0px" y="0px"
	 viewBox="0 0 100 100" style="enable-background:new 0 0 100 100;" xml:space="preserve">
<style type="text/css">
	.st0{fill:none;stroke:#59B7A9;stroke-width:2;stroke-miterlimit:10;}
	.st1{fill:none;stroke:#59B7A9;stroke-width:4;stroke-linecap:round;stroke-linejoin:round;stroke-miterlimit:10;}
	.st0,
	.st1,
	.st2 {
		stroke-dasharray: 600;
		stroke-dashoffset: 0;
		-webkit-animation: 	animate 15s 0s infinite alternate;
		-o-animation: 		animate 15s 0s infinite alternate;
		-moz-animation: 	animate 15s 0s infinite alternate;
		animation: 			animate 15s 0s infinite alternate;
	}		
	@-webkit-keyframes animate {
		0% {
			stroke-dashoffset:600;
		}
		100% {
			stroke-dashoffset:0;
		}
	}
	@keyframes animate {
		0% {
			stroke-dashoffset:600;
		}		
		100% {
			stroke-dashoffset:0;
		}
	}		
</style>
<path id="border" class="st0" d="M89,99H11C5.5,99,1,94.5,1,89V11C1,5.5,5.5,1,11,1h78c5.5,0,10,4.5,10,10v78C99,94.5,94.5,99,89,99
	z"/>
<path class="st1" d="M65.6,47.7c5.6,2.2,9,5.9,10.1,11.6C77.9,71,72,78.8,59.2,80.8c-2.4,0.4-4.8,0.6-7.2,0.6
	c-9.3,0.1-18.5,0-28.1,0c0-21,0-41.7,0-62.5c0.1-0.1,0.3-0.3,0.4-0.3c11.7,0.2,23.4-0.1,35.1,1c10.5,1,15.6,8.7,13.8,18.7
	C72.4,42.7,69.6,45.5,65.6,47.7z M40.3,70c4.3,0,8.3,0.2,12.3-0.1c4.2-0.3,6.6-3.1,6.9-7.3c0.3-4-1.6-7.5-5.4-8.1
	c-4.5-0.7-9.1-0.6-13.8-0.9C40.3,59.5,40.3,64.6,40.3,70z M40.4,29.7c0,4.5,0,8.6,0,13c3.6,0,7,0.2,10.5-0.1
	c4.2-0.4,6.2-2.8,6.1-6.6c-0.1-3.7-2.3-6.1-6.5-6.3C47.2,29.5,44,29.7,40.4,29.7z"/>
</svg>
