<!--
/** SVG Name: Gregory Jacobs' Skills Program Knowledge - Animated SVG Icons
*** Description: Simple SVG Icon Animation
*** Version: 1.0
*** Author: Gregory Jacobs
*** License: GPL2
**/
-->
<svg version="1.1" id="Layer_1" xmlns="http://www.w3.org/2000/svg" xmlns:xlink="http://www.w3.org/1999/xlink" x="0px" y="0px"
	 viewBox="0 0 100 100" style="enable-background:new 0 0 100 100;" xml:space="preserve">
<style type="text/css">
	.st0{
		fill:none;
		stroke:#231F20;
		stroke-width:2;
		stroke-linecap:square;
		stroke-linejoin:round;
		stroke-miterlimit:10;
	}
	.st1{
		fill:none;
		stroke:#231F20;
		stroke-width:4;
		stroke-linecap:square;
		stroke-miterlimit:10;
	}
	.st0,
	.st1 {
		stroke-dasharray: 600;
		stroke-dashoffset: 0;
		-webkit-animation: 	animate 15s 0s infinite alternate;
		-o-animation: 		animate 15s 0s infinite alternate;
		-moz-animation: 	animate 15s 0s infinite alternate;
		animation: 			animate 15s 0s infinite alternate;
	}		
	@-webkit-keyframes animate {
		0% {
			stroke-dashoffset:600;
		}
		100% {
			stroke-dashoffset:0;
		}
	}
	@keyframes animate {
		0% {
			stroke-dashoffset:600;
		}		
		100% {
			stroke-dashoffset:0;
		}
	}		
</style>
<path id="border" class="st0" d="M89,99H11C5.5,99,1,94.5,1,89V11C1,5.5,5.5,1,11,1h78c5.5,0,10,4.5,10,10v78C99,94.5,94.5,99,89,99
	z"/>
<g>
	<path class="st1" d="M17.4,63.1c0.1-6.6,1.4-12.4,4.7-17.6c5.6-8.9,13-15.7,22.9-19.3c8.6-3.1,17.1-2.6,25.5,0.9
		c2,0.8,2.7,0.9,4-0.9c1.6-2.1,2.9-4.5,4.2-6.8c0.3-0.5,0.4-1.1,0.8-1.5c0.2-0.3,0.8-0.5,1-0.4c2,0.7,2.9,3.4,1.6,5.1
		c-1.7,2.2-3.4,4.3-5.2,6.4c-1.1,1.4-1.4,2.7-0.7,4.5c3.6,9.4,1.3,17.6-5.4,24.8c-5.5,5.9-12.5,9.3-20.1,11.2c-3.9,1-8,1.1-11.9,2
		c-3,0.6-5.9,1.6-8.7,2.7c-2.3,0.9-3.9,2.8-4.9,5.2c-0.5,1.1-1.4,1.9-2.2,2.8c-0.7-0.9-1.6-1.7-2.1-2.8
		C18.4,74.2,17.6,68.5,17.4,63.1z"/>
</g>
</svg>
