<!--
/** SVG Name: Gregory Jacobs' Skills Program Knowledge - Animated SVG Icons
*** Description: Simple SVG Icon Animation
*** Version: 1.0
*** Author: Gregory Jacobs
*** License: GPL2
**/
-->
<svg version="1.1" id="Layer_1" xmlns="http://www.w3.org/2000/svg" xmlns:xlink="http://www.w3.org/1999/xlink" x="0px" y="0px"
	 viewBox="0 0 100 100" style="enable-background:new 0 0 100 100;" xml:space="preserve">
<style type="text/css">
	.st0{
		fill:none;
		stroke:#59B7A9;
		stroke-width:2;
		stroke-miterlimit:10;
	}
	.st1{
		fill:none;
		stroke:#59B7A9;
		stroke-width:4;
		stroke-linecap:round;
		stroke-linejoin:round;
		stroke-miterlimit:10;
	}
	.st0,
	.st1 {
		stroke-dasharray: 600;
		stroke-dashoffset: 0;
		-webkit-animation: 	animate 15s 0s infinite alternate;
		-o-animation: 		animate 15s 0s infinite alternate;
		-moz-animation: 	animate 15s 0s infinite alternate;
		animation: 			animate 15s 0s infinite alternate;
	}		
	@-webkit-keyframes animate {
		0% {
			stroke-dashoffset:600;
		}
		100% {
			stroke-dashoffset:0;
		}
	}
	@keyframes animate {
		0% {
			stroke-dashoffset:600;
		}		
		100% {
			stroke-dashoffset:0;
		}
	}		
</style>
<path id="border" class="st0" d="M89,99H11C5.5,99,1,94.5,1,89V11C1,5.5,5.5,1,11,1h78c5.5,0,10,4.5,10,10v78C99,94.5,94.5,99,89,99
	z"/>
<path id="GIT" class="st1" d="M57.2,68c2.4,2.8,2.3,6,2.3,9.2c0,2.2,0,4.5,0,6.7c0,3.5,1,4.1,4.2,2.9c16.4-6.4,26.2-22.7,24.1-40.2
	C85.3,25.1,64.9,10,43.7,13.9C15.8,19,3,51.4,19.9,74.1c4.5,6.1,10.4,10.4,17.5,12.9c1.9,0.7,3.3,0.2,3.4-1.2c0.2-2.3,0-4.6,0-6.9
	c-0.6,0.1-1,0.2-1.4,0.2c-5.8,0.8-10.1-1.3-12-6.3c-0.6-1.7-2.4-3.1-3.7-4.5c-0.5-0.5-1.3-0.7-2-1c2.1-1.5,3.6-1.3,4.8-0.4
	c1.3,1,2.5,2.2,3.4,3.5c2.4,3.4,6.1,4.6,10,3c0.4-0.2,0.9-0.5,1.1-0.9c0.7-1.5,1.2-3,1.9-4.6c-1-0.2-2-0.4-3.1-0.6
	c-12.6-2.4-18.2-16.7-10.8-27.2c0.4-0.5,0.4-1.4,0.4-2.1c0.1-2.3-0.1-4.6,0.2-6.8c0.3-2.2,0.9-2.5,3.1-1.7c2.3,0.8,4.4,2,6.7,2.9
	c0.8,0.3,1.7,0.6,2.4,0.4c5.5-1.2,10.9-1.2,16.4-0.1c0.9,0.2,2-0.2,3-0.5c2.2-0.9,4.3-1.9,6.5-2.8c1.5-0.6,2.7-0.2,2.8,1.6
	c0.1,2.3,0.1,4.7,0.2,7c0,0.6-0.1,1.4,0.2,1.8c2.9,3.6,3.4,7.7,3.2,12.1C73.8,59.8,69.6,65,62,67C60.6,67.3,59,67.6,57.2,68z"/>
</svg>
