<!--
/** SVG Name: Gregory Jacobs' Skills Program Knowledge - Animated SVG Icons
*** Description: Simple SVG Icon Animation
*** Version: 1.0
*** Author: Gregory Jacobs
*** License: GPL2
**/
-->
<svg version="1.1" id="Layer_1" xmlns="http://www.w3.org/2000/svg" xmlns:xlink="http://www.w3.org/1999/xlink" x="0px" y="0px"
	 viewBox="0 0 100 100" style="enable-background:new 0 0 100 100;" xml:space="preserve">
<style type="text/css">
	.st0{
		fill:none;
		stroke:#59B7A9;
		stroke-width:2;
		stroke-miterlimit:10;
	}
	.st1{
		fill:none;
		stroke:#59B7A9;
		stroke-width:4;
		stroke-linecap:round;
		stroke-miterlimit:10;
	}
	.st2{
		fill:none;
		stroke:#59B7A9;
		stroke-width:2;
		stroke-linejoin:round;
		stroke-miterlimit:10;
	}
	.st0,
	.st1,
	.st2 {
		stroke-dasharray: 600;
		stroke-dashoffset: 0;
		-webkit-animation: 	animate 15s 0s infinite alternate;
		-o-animation: 		animate 15s 0s infinite alternate;
		-moz-animation: 	animate 15s 0s infinite alternate;
		animation: 			animate 15s 0s infinite alternate;
	}		
	@-webkit-keyframes animate {
		0% {
			stroke-dashoffset:600;
		}
		100% {
			stroke-dashoffset:0;
		}
	}
	@keyframes animate {
		0% {
			stroke-dashoffset:600;
		}		
		100% {
			stroke-dashoffset:0;
		}
	}			
</style>
<path id="border" class="st0" d="M89,99H11C5.5,99,1,94.5,1,89V11C1,5.5,5.5,1,11,1h78c5.5,0,10,4.5,10,10v78C99,94.5,94.5,99,89,99
	z"/>
<g>
	<path id="shape" class="st1" d="M50.1,93.4l-24.7-6.9l-5.5-61.7h60.5l-5.5,61.7L50.1,93.4z M50.1,93.4"/>
	<polygon class="st2" points="50.1,37.4 50.1,37.4 31.1,37.4 31.3,39.4 33.2,60.3 50.1,60.3 50.1,60.3 59.4,60.3 58.5,70.1 
		50.1,72.4 50.1,72.4 50.1,72.4 41.6,70.1 41.1,64.1 37,64.1 33.5,64.1 34.6,76 50.1,80.3 50.1,80.3 50.1,80.3 65.6,76 65.7,74.7 
		67.5,54.8 67.7,52.7 65.6,52.7 50.1,52.7 50.1,52.7 40.1,52.7 39.4,45 50.1,45 50.1,45 68.3,45 68.4,45 68.5,43.3 68.9,39.4 
		69,37.4 	"/>
</g>
<path class="st2" d="M27.1,7v12.5 M35.1,7v12.5 M27.1,13.8h8"/>
<path class="st2" d="M43.7,8v11.5 M38.4,8H49"/>
<path class="st2" d="M61.7,19.5V8L57,13.8L52.6,8v11.5"/>
<path class="st2" d="M74.6,18.5h-7.3h0V7"/>
</svg>
