<!--
/** SVG Name: Gregory Jacobs' Skills Program Knowledge - Animated SVG Icons
*** Description: Simple SVG Icon Animation
*** Version: 1.0
*** Author: Gregory Jacobs
*** License: GPL2
**/
-->
<svg version="1.1" id="Layer_1" xmlns="http://www.w3.org/2000/svg" xmlns:xlink="http://www.w3.org/1999/xlink" x="0px" y="0px"
	 viewBox="0 0 100 100" style="enable-background:new 0 0 100 100;
		" xml:space="preserve">
<style type="text/css">
	.st0{
		fill:none;
		stroke:#59B7A9;
		stroke-width:2;
		stroke-miterlimit:10;
	}
	.st1{
		fill:none;
		stroke:#59B7A9;
		stroke-width:2;
		stroke-linecap:round;
		stroke-linejoin:round;
		stroke-miterlimit:10;
	}
	.st0,
	.st1 {
		stroke-dasharray: 600;
		stroke-dashoffset: 0;
		-webkit-animation: 	animate 15s 0s infinite alternate;
		-o-animation: 		animate 15s 0s infinite alternate;
		-moz-animation: 	animate 15s 0s infinite alternate;
		animation: 			animate 15s 0s infinite alternate;
	}		
	@-webkit-keyframes animate {
		0% {
			stroke-dashoffset:600;
		}
		100% {
			stroke-dashoffset:0;
		}
	}
	@keyframes animate {
		0% {
			stroke-dashoffset:600;
		}		
		100% {
			stroke-dashoffset:0;
		}
	}	
</style>
<path id="border" class="st0" d="M89,99H11C5.5,99,1,94.5,1,89V11C1,5.5,5.5,1,11,1h78c5.5,0,10,4.5,10,10v78C99,94.5,94.5,99,89,99
	z"/>
<g>
	<path class="st1" d="M39.5,38.1C40,34,42.9,30.3,48,26.9c14.7-10,9.5-16.4,9.3-16.8l0,0c0.1,0.1,10.4,8.1-8.5,20.9
		c-3.9,2.6-5.1,4.4-5.4,7c-0.5,3.9,5.5,12.5,5.9,14C49.2,52.1,38.7,44.2,39.5,38.1z"/>
	<path class="st1" d="M52.2,54.6c0.7-1.8,3-4.6,0.7-7.4c-3.2-4-4-7.8-2.9-10.9c3-8.3,14.7-10,16.2-10.5l0,0
		c-3.4,1.1-10.7,5.9-12.5,11c-0.6,1.7,2.1,5.5,3.3,7.4C60.8,50.2,51.7,55.7,52.2,54.6z"/>
	<path class="st1" d="M43.6,59.2c-2.1,0-16.2,0.6-16.5-2.6c-0.4-3,13.2-4.5,13.2-4.5c-1.6,0.5-10.8,3.8-7.2,4.1
		c16.1,1.7,32.3-1.2,32.3-1.2S60.9,59.2,43.6,59.2z"/>
	<path class="st1" d="M37.9,63.7c7.7,1.8,21.2-0.6,21.3-0.6l3.5,2c-0.4,0.1-22.3,4.8-29.2-0.4c-2.1-1.6,1.9-2.8,3.1-3.4
		C36.6,61.3,35,63,37.9,63.7z"/>
	<path class="st1" d="M66.4,65.7L66.4,65.7c3.5-3.3,10.5-6.4,8.6-11.3c-1.2-3.2-5.1-3.2-6.9-2.3l0,0c1.1-0.6,3.7-2.2,7.4-1
		c1.3,0.4,3.6,2.3,2.6,5.8C76.6,62.7,66.4,65.7,66.4,65.7z"/>
	<path class="st1" d="M51.9,83c-10.4,0.6-31.2-0.4-30.8-3.4c0.2-1.1-0.6-3.3,11.6-4.5c0,0-9.2,2.1-6.4,3.4c5.2,2.5,20.4,3.6,40,1.2
		c7-0.8,6.5-4.2,6.5-4.2C79.8,78,68.5,82,51.9,83z"/>
	<path class="st1" d="M39.3,69.2c0,0-6.6,2.3-2.8,4.2c4.5,2.3,14.4,3.6,24.6-0.3l-4.2-2c0,0-8.4,2.1-17.1,0.5
		C37.3,71.1,39.3,69.2,39.3,69.2z"/>
	<path class="st1" d="M78.4,80.6c0,0-0.9,3.6-21.3,5.6c-11.5,1.1-24.9-0.5-24.9-0.5s5.5,2.5,18.6,2.1C63.9,87.5,79.3,85.2,78.4,80.6
		z"/>
</g>
</svg>
