<!--
/** SVG Name: Gregory Jacobs' Skills Program Knowledge - Animated SVG Icons
*** Description: Simple SVG Icon Animation
*** Version: 1.0
*** Author: Gregory Jacobs
*** License: GPL2
**/
-->
<svg version="1.1" id="Layer_1" xmlns="http://www.w3.org/2000/svg" xmlns:xlink="http://www.w3.org/1999/xlink" x="0px" y="0px"
	 viewBox="0 0 100 100" style="enable-background:new 0 0 100 100;" xml:space="preserve">
<style type="text/css">
	.st0{
		fill:none;
		stroke:#59B7A9;
		stroke-width:2;
		stroke-miterlimit:10;
	}
	.st1{
		fill:none;
		stroke:#59B7A9;
		stroke-width:4;
		stroke-miterlimit:10;
	}
	.st0,
	.st1 {
		stroke-dasharray: 600;
		stroke-dashoffset: 0;
		-webkit-animation: 	animate 15s 0s infinite alternate;
		-o-animation: 		animate 15s 0s infinite alternate;
		-moz-animation: 	animate 15s 0s infinite alternate;
		animation: 			animate 15s 0s infinite alternate;
	}		
	@-webkit-keyframes animate {
		0% {
			stroke-dashoffset:600;
		}
		100% {
			stroke-dashoffset:0;
		}
	}
	@keyframes animate {
		0% {
			stroke-dashoffset:600;
		}		
		100% {
			stroke-dashoffset:0;
		}
	}	
</style>
<path id="border" class="st0" d="M89,99H11C5.5,99,1,94.5,1,89V11C1,5.5,5.5,1,11,1h78c5.5,0,10,4.5,10,10v78C99,94.5,94.5,99,89,99
	z"/>
<g>
	<ellipse class="st1" cx="50" cy="50" rx="39.4" ry="20"/>
	<g>
		<path class="st0" d="M56.7,55.3c0,0,1.6-8.4,1.6-8.4c0.4-1.9,0.1-3.3-0.9-4.2c-0.9-0.9-2.5-1.3-4.9-1.3h-2.8l0.8-4.2
			c0-0.2,0-0.3-0.1-0.4c-0.1-0.1-0.3-0.2-0.4-0.2h-3.9c-0.3,0-0.5,0.2-0.5,0.4L43.8,46c-0.2-1-0.5-1.9-1.2-2.6c-1.1-1.3-2.9-2-5.4-2
			h-7.5c-0.3,0-0.5,0.2-0.5,0.4l-3.5,18c0,0.2,0,0.3,0.1,0.4c0.1,0.1,0.3,0.2,0.4,0.2h3.9c0.3,0,0.5-0.2,0.5-0.4l0.8-4.4h2.9
			c1.5,0,2.8-0.2,3.8-0.5c1-0.3,2-0.9,2.8-1.7c0.7-0.6,1.2-1.3,1.7-2.1l-0.7,3.6c0,0.2,0,0.3,0.1,0.4c0.1,0.1,0.3,0.2,0.4,0.2h3.9
			c0.3,0,0.5-0.2,0.5-0.4l1.9-9.9h2.7c1.1,0,1.5,0.2,1.6,0.3c0.1,0.1,0.3,0.4,0.1,1.4l-1.5,8c0,0.2,0,0.3,0.1,0.4
			c0.1,0.1,0.3,0.2,0.4,0.2h4C56.4,55.7,56.6,55.5,56.7,55.3z M38.6,48.4c-0.2,1.3-0.7,2.2-1.4,2.7c-0.7,0.5-1.8,0.8-3.2,0.8h-1.7
			l1.3-6.5h2.2c1.7,0,2.3,0.4,2.6,0.6C38.8,46.4,38.8,47.2,38.6,48.4z"/>
		<path class="st0" d="M73.3,43.4c-1.1-1.3-2.9-2-5.4-2h-7.5c-0.3,0-0.5,0.2-0.5,0.4l-3.5,18c0,0.2,0,0.3,0.1,0.4
			c0.1,0.1,0.3,0.2,0.4,0.2h3.9c0.3,0,0.5-0.2,0.5-0.4l0.8-4.4h2.9c1.5,0,2.8-0.2,3.8-0.5c1-0.3,2-0.9,2.8-1.7
			c0.7-0.6,1.3-1.4,1.7-2.1c0.4-0.8,0.7-1.6,0.9-2.6C74.8,46.5,74.4,44.7,73.3,43.4z M69.2,48.4c-0.2,1.3-0.7,2.2-1.4,2.7
			c-0.7,0.5-1.8,0.8-3.2,0.8h-1.7l1.3-6.5h2.2c1.7,0,2.3,0.4,2.6,0.6C69.4,46.4,69.4,47.2,69.2,48.4z"/>
	</g>
</g>
</svg>
