<!--
/** SVG Name: Gregory Jacobs' Skills Program Knowledge - Animated SVG Icons
*** Description: Simple SVG Icon Animation
*** Version: 1.0
*** Author: Gregory Jacobs
*** License: GPL2
**/
-->
<svg version="1.1" id="Layer_1" xmlns="http://www.w3.org/2000/svg" xmlns:xlink="http://www.w3.org/1999/xlink" x="0px" y="0px"
	 viewBox="0 0 100 100" style="enable-background:new 0 0 100 100;" xml:space="preserve">
<style type="text/css">
	.st0{
		fill:none;
		stroke:#59B7A9;
		stroke-width:2;
		stroke-linecap:square;
		stroke-linejoin:round;
		stroke-miterlimit:10;
	}
	.st1{
		fill:none;
		stroke:#59B7A9;
		stroke-width:3;
		stroke-linecap:square;
		stroke-miterlimit:10;
	}
	.st2{
		fill:none;
		stroke:#59B7A9;
		stroke-width:3;
		stroke-linecap:square;
		stroke-miterlimit:10;
	}
	.st3{
		fill:none;
		stroke:#264868;
		stroke-width:2;
		stroke-linecap:square;
		stroke-miterlimit:10;
	}
	.st0,
	.st1,
	.st2,
	.st3 {
		stroke-dasharray: 600;
		stroke-dashoffset: 0;
		-webkit-animation: 	animate 15s 0s infinite alternate;
		-o-animation: 		animate 15s 0s infinite alternate;
		-moz-animation: 	animate 15s 0s infinite alternate;
		animation: 			animate 15s 0s infinite alternate;
	}		
	@-webkit-keyframes animate {
		0% {
			stroke-dashoffset:600;
		}
		100% {
			stroke-dashoffset:0;
		}
	}
	@keyframes animate {
		0% {
			stroke-dashoffset:600;
		}		
		100% {
			stroke-dashoffset:0;
		}
	}		
</style>
<path id="border" class="st0" d="M89,99H11C5.5,99,1,94.5,1,89V11C1,5.5,5.5,1,11,1h78c5.5,0,10,4.5,10,10v78C99,94.5,94.5,99,89,99
	z"/>
<g>
	<path class="st1" d="M5.5,23.2L20.3,6.5L50.6,13l-5.3,11l6.4,22.9l-12.1-6.2l0.6,17.2v15l-26.5,0.3L5.5,23.2z"/>
	<polygon class="st1" points="33,57.5 34.6,37 45.3,24 59.2,11.7 81.2,15.7 92.5,43.9 80.7,55.6 61.5,52.4 49.4,65 	"/>
	<polygon class="st2" points="75.3,54.6 45.3,24 23.9,43.1 30.6,83.3 60,93.5 92.5,74.1 80.7,55.6 	"/>
	<rect x="21.8" y="22.9" width="54.4" height="54.4" style="fill:#59B7A9;" fill="#59B7A9"/>
	<path class="st3" d="M27,67h20.4v3.4H27V67z M26.7,29.9H36c5.4,0,8.7,3.1,8.7,7.7c0,5.2-4.1,7.9-9.1,7.9h-3.8v6.8h-5V29.9
		L26.7,29.9z M35.7,41.4c2.4,0,3.9-1.6,3.9-3.5c0-2.2-1.5-3.4-4.1-3.4h-3.8v6.9H35.7z M45.9,49.2l3-3.5c2,1.6,4.2,2.7,6.8,2.7
		c2,0,3.3-0.8,3.3-2.2c0-1.2-0.8-1.9-4.6-2.9c-4.6-1.2-7.5-2.4-7.5-6.9v-0.1c0-4.1,3.3-6.8,7.9-6.8c3,0,6,1,8.4,2.9l-2.6,3.8
		c-2-1.4-3.9-2.2-5.8-2.2c-1.9,0-2.9,0.8-2.9,2c0,1.5,1,2,4.9,3c4.6,1.2,7.2,2.9,7.2,6.8c0,4.5-3.4,7.1-8.3,7.1
		C52.1,52.9,48.6,51.6,45.9,49.2z"/>
</g>
</svg>
