<!--
/** SVG Name: Gregory Jacobs' Skills Program Knowledge - Animated SVG Icons
*** Description: Simple SVG Icon Animation
*** Version: 1.0
*** Author: Gregory Jacobs
*** License: GPL2
**/
-->
<svg version="1.1" id="Layer_1" xmlns="http://www.w3.org/2000/svg" xmlns:xlink="http://www.w3.org/1999/xlink" x="0px" y="0px"
	 viewBox="0 0 100 100" style="enable-background:new 0 0 100 100;" xml:space="preserve">
<style type="text/css">
	.st0{
		fill:none;
		stroke:#59B7A9;
		stroke-width:2;
		stroke-linecap:round;
		stroke-linejoin:round;		
		stroke-miterlimit:10;
	}
	.st0 {
		stroke-dasharray: 600;
		stroke-dashoffset: 0;
		-webkit-animation: 	animate 15s 0s infinite alternate;
		-o-animation: 		animate 15s 0s infinite alternate;
		-moz-animation: 	animate 15s 0s infinite alternate;
		animation: 			animate 15s 0s infinite alternate;
	}		
	@-webkit-keyframes animate {
		0% {
			stroke-dashoffset:600;
		}
		100% {
			stroke-dashoffset:0;
		}
	}
	@keyframes animate {
		0% {
			stroke-dashoffset:600;
		}		
		100% {
			stroke-dashoffset:0;
		}
	}		
	
</style>
<path id="border" class="st0" d="M89,99H11C5.5,99,1,94.5,1,89V11C1,5.5,5.5,1,11,1h78c5.5,0,10,4.5,10,10v78C99,94.5,94.5,99,89,99
	z"/>
<g id="react">
	<path class="st0" d="M74.3,38.2c-0.8-0.3-1.6-0.5-2.4-0.8c0.1-0.6,0.3-1.1,0.4-1.7c1.8-8.9,0.6-16.1-3.5-18.4
		c-3.9-2.3-10.4,0.1-16.8,5.7c-0.6,0.5-1.2,1.1-1.9,1.7c-0.4-0.4-0.8-0.8-1.2-1.2c-6.8-6-13.6-8.6-17.7-6.2c-3.9,2.3-5.1,9-3.4,17.5
		c0.2,0.8,0.3,1.6,0.6,2.5c-1,0.3-1.9,0.6-2.8,0.9c-8,2.8-13.1,7.1-13.1,11.7c0,4.7,5.5,9.3,13.8,12.2c0.7,0.2,1.3,0.4,2,0.6
		c-0.2,0.9-0.4,1.8-0.6,2.7c-1.6,8.3-0.3,14.9,3.6,17.1c4,2.3,10.8-0.1,17.4-5.8c0.5-0.5,1-0.9,1.6-1.4c0.7,0.7,1.4,1.3,2,1.9
		c6.4,5.5,12.7,7.7,16.6,5.5c4-2.3,5.4-9.4,3.6-18c-0.1-0.7-0.3-1.3-0.5-2c0.5-0.1,0.9-0.3,1.4-0.4c8.6-2.9,14.2-7.5,14.2-12.2
		C87.7,45.4,82.4,41,74.3,38.2L74.3,38.2L74.3,38.2z"/>
	<path class="st0" d="M72.4,59.1c-0.4,0.1-0.8,0.3-1.3,0.4c-1-3-2.2-6.2-3.8-9.5c1.5-3.2,2.7-6.4,3.7-9.4c0.8,0.2,1.5,0.5,2.2,0.7
		c7,2.4,11.2,5.9,11.2,8.7C84.4,52.8,79.8,56.6,72.4,59.1L72.4,59.1L72.4,59.1z M69.3,65.2c0.8,3.8,0.9,7.2,0.4,9.9
		c-0.4,2.4-1.4,4-2.5,4.7c-2.4,1.4-7.4-0.4-12.9-5.1c-0.6-0.5-1.3-1.1-1.9-1.7c2.1-2.3,4.2-5,6.3-8c3.6-0.3,7.1-0.9,10.2-1.6
		C69,64,69.2,64.6,69.3,65.2L69.3,65.2L69.3,65.2z M38,79.6c-2.3,0.8-4.2,0.8-5.3,0.2c-2.4-1.4-3.4-6.7-2-13.8
		c0.2-0.8,0.3-1.6,0.5-2.5c3.1,0.7,6.5,1.2,10.1,1.5c2.1,2.9,4.3,5.6,6.5,8c-0.5,0.5-1,0.9-1.4,1.3C43.5,76.9,40.6,78.7,38,79.6
		L38,79.6L38,79.6z M27.2,59.1c-3.7-1.3-6.7-2.9-8.8-4.7c-1.9-1.6-2.8-3.2-2.8-4.5c0-2.7,4.1-6.2,10.9-8.6c0.8-0.3,1.7-0.6,2.6-0.8
		c0.9,3.1,2.2,6.3,3.7,9.5c-1.5,3.3-2.8,6.5-3.7,9.6C28.4,59.5,27.8,59.3,27.2,59.1L27.2,59.1L27.2,59.1z M30.8,34.3
		c-1.4-7.2-0.5-12.7,1.9-14.1c2.5-1.5,8.1,0.6,14,5.8c0.4,0.3,0.8,0.7,1.1,1c-2.2,2.3-4.3,5-6.4,7.9c-3.5,0.3-6.9,0.9-10,1.6
		C31.1,35.8,30.9,35.1,30.8,34.3L30.8,34.3L30.8,34.3z M63.3,42.3c-0.7-1.3-1.5-2.5-2.3-3.8c2.4,0.3,4.7,0.7,6.9,1.2
		c-0.6,2.1-1.5,4.3-2.4,6.5C64.8,44.9,64,43.6,63.3,42.3L63.3,42.3L63.3,42.3z M50,29.4c1.5,1.6,3,3.4,4.4,5.3
		c-1.5-0.1-3-0.1-4.5-0.1c-1.5,0-3,0-4.4,0.1C47,32.8,48.5,31,50,29.4L50,29.4L50,29.4z M36.7,42.3c-0.7,1.3-1.5,2.6-2.1,3.9
		c-0.9-2.2-1.7-4.4-2.4-6.5c2.1-0.5,4.4-0.9,6.8-1.2C38.2,39.8,37.5,41,36.7,42.3L36.7,42.3L36.7,42.3z M39.1,61.6
		c-2.5-0.3-4.8-0.6-6.9-1.1c0.7-2.1,1.5-4.4,2.4-6.6c0.7,1.3,1.4,2.6,2.1,3.9h0C37.5,59,38.3,60.3,39.1,61.6L39.1,61.6L39.1,61.6z
		 M50.1,70.7c-1.5-1.6-3-3.5-4.5-5.4c1.4,0.1,2.9,0.1,4.4,0.1c1.5,0,3.1,0,4.5-0.1C53.1,67.2,51.6,69.1,50.1,70.7L50.1,70.7
		L50.1,70.7z M65.5,53.7c1,2.3,1.9,4.5,2.5,6.6c-2.2,0.5-4.5,0.9-7,1.2c0.8-1.2,1.6-2.5,2.3-3.8C64.1,56.3,64.8,55,65.5,53.7
		L65.5,53.7L65.5,53.7z M60.5,56.1c-1.2,2-2.4,4-3.6,5.8c-2.2,0.2-4.5,0.2-6.9,0.2c-2.3,0-4.6-0.1-6.8-0.2c-1.3-1.9-2.5-3.8-3.7-5.8
		h0c-1.2-2-2.2-4-3.2-6.1c1-2,2-4.1,3.2-6.1l0,0c1.2-2,2.4-4,3.7-5.8c2.2-0.2,4.5-0.3,6.9-0.3h0c2.3,0,4.6,0.1,6.9,0.3
		c1.2,1.8,2.5,3.8,3.6,5.8c1.2,2,2.3,4.1,3.2,6C62.8,52,61.7,54,60.5,56.1L60.5,56.1L60.5,56.1z M67.1,20.1c2.5,1.5,3.5,7.3,1.9,15
		c-0.1,0.5-0.2,1-0.3,1.5c-3.1-0.7-6.5-1.3-10.1-1.6c-2.1-2.9-4.2-5.6-6.4-7.9c0.6-0.6,1.2-1.1,1.7-1.6
		C59.6,20.7,64.8,18.8,67.1,20.1L67.1,20.1L67.1,20.1z"/>
	<path class="st0" d="M50,43.3c3.7,0,6.7,3,6.7,6.7c0,3.7-3,6.7-6.7,6.7s-6.7-3-6.7-6.7C43.3,46.3,46.3,43.3,50,43.3"/>
</g>
</svg>
