<svg version="1.1" id="Layer_1" xmlns="http://www.w3.org/2000/svg" xmlns:xlink="http://www.w3.org/1999/xlink" x="0px" y="0px"
	 viewBox="0 0 100 100" style="enable-background:new 0 0 100 100;" xml:space="preserve">
<style type="text/css">
	.st0{
		fill:none;
		stroke:#59B7A9;
		stroke-width:2;
		stroke-miterlimit:10;
	}
	.st1{
		fill:none;
		stroke:#59B7A9;
		stroke-width:2;
		stroke-linecap:round;
		stroke-linejoin:round;
		stroke-miterlimit:10;
	}
	.st0 {
		stroke-dasharray: 700;
		stroke-dashoffset: 0;
		-webkit-animation: 	animate0 15s 0s infinite alternate;
		-o-animation: 		animate0 15s 0s infinite alternate;
		-moz-animation: 	animate0 15s 0s infinite alternate;
		animation: 			animate0 15s 0s infinite alternate;
	}
	.st1 {
		stroke-dasharray: 1200;
		stroke-dashoffset: 0;
		-webkit-animation: 	animate1 15s 0s infinite alternate;
		-o-animation: 		animate1 15s 0s infinite alternate;
		-moz-animation: 	animate1 15s 0s infinite alternate;
		animation: 			animate1 15s 0s infinite alternate;
	}		
	@-webkit-keyframes animate0 {
		0% { stroke-dashoffset:700; }
		100% { stroke-dashoffset:0; }
	}
	@keyframes animate0 {
		0% { stroke-dashoffset:700; }		
		100% { stroke-dashoffset:0; }
	}
	@-webkit-keyframes animate1 {
		0% { stroke-dashoffset:1200; }
		100% { stroke-dashoffset:0; }
	}
	@keyframes animate1 {
		0% { stroke-dashoffset:1200; }		
		100% { stroke-dashoffset:0; }
	}		
</style>
<path id="border" class="st0" d="M89,99H11C5.5,99,1,94.5,1,89V11C1,5.5,5.5,1,11,1h78c5.5,0,10,4.5,10,10v78C99,94.5,94.5,99,89,99
	z"/>
<path class="st1" d="M81.5,55.9c-3,0-5.6,0.7-7.8,1.8c-0.8-1.6-1.6-3-1.7-4c-0.2-1.2-0.3-1.9-0.2-3.4c0.2-1.4,1-3.5,1-3.7
	c0-0.2-0.2-0.9-1.9-0.9c-1.7,0-3.2,0.3-3.4,0.8c-0.2,0.5-0.5,1.5-0.7,2.6c-0.3,1.6-3.5,7.2-5.3,10.1c-0.6-1.1-1.1-2.1-1.2-3
	c-0.2-1.2-0.3-1.9-0.2-3.4c0.2-1.4,1-3.5,1-3.7c0-0.2-0.2-0.9-1.9-0.9c-1.7,0-3.2,0.3-3.4,0.8c-0.2,0.5-0.4,1.5-0.7,2.6
	c-0.4,1-4.6,10.4-5.6,12.8c-0.6,1.2-1,2.2-1.4,2.9c-0.4,0.7,0,0.1-0.1,0.1c-0.3,0.6-0.5,0.9-0.5,0.9v0c-0.2,0.4-0.5,0.8-0.6,0.8
	c-0.1,0-0.3-1.1,0-2.7c0.6-3.2,2.1-8.3,2.1-8.5c0-0.1,0.3-1-1-1.4c-1.2-0.5-1.7,0.3-1.8,0.3c-0.1,0-0.2,0.3-0.2,0.3s1.4-5.7-2.6-5.7
	c-2.5,0-5.9,2.7-7.6,5.2c-1.1,0.6-3.4,1.8-5.8,3.2c-0.9,0.5-1.9,1-2.8,1.5l-0.2-0.2C22.5,56,13.6,52.4,14,45.5
	c0.1-2.5,1-9.1,17.1-17.1c13.2-6.6,23.7-4.8,25.5-0.8C59.2,33.3,51,44,37.3,45.5c-5.2,0.6-7.9-1.4-8.6-2.2c-0.7-0.8-0.8-0.8-1.1-0.7
	c-0.4,0.2-0.2,0.9,0,1.4c0.4,1.1,2.1,2.9,4.9,3.9c2.5,0.8,8.6,1.3,16-1.6c8.3-3.2,14.7-12.1,12.8-19.6c-1.9-7.6-14.5-10.1-26.4-5.8
	c-7.1,2.5-14.7,6.4-20.2,11.6C8.2,38.6,7.2,44,7.6,46.2C9.1,54.1,20,59.2,24.4,63.1c-0.2,0.1-0.4,0.2-0.6,0.3
	c-2.2,1.1-10.5,5.4-12.6,10c-2.4,5.2,0.4,9,2.2,9.5c5.6,1.6,11.4-1.2,14.5-5.9c3.1-4.6,2.7-10.6,1.3-13.4l-0.1-0.1l1.7-1
	c1.1-0.7,2.2-1.3,3.2-1.8c-0.5,1.5-0.9,3.2-1.1,5.7c-0.2,3,1,6.8,2.6,8.3c0.7,0.7,1.5,0.7,2.1,0.7c1.8,0,2.7-1.5,3.6-3.4
	c1.1-2.2,2.1-4.8,2.1-4.8s-1.3,7,2.2,7c1.3,0,2.5-1.6,3.1-2.5v0c0,0,0-0.1,0.1-0.2c0.1-0.2,0.2-0.3,0.2-0.3v0
	c0.5-0.9,1.6-2.9,3.3-6.2c2.2-4.3,4.2-9.6,4.2-9.6s0.2,1.3,0.8,3.5c0.4,1.3,1.2,2.7,1.8,4c-0.5,0.7-0.8,1.1-0.8,1.1l0,0
	c-0.4,0.5-0.9,1.1-1.3,1.7c-1.7,2-3.8,4.4-4,5.1c-0.3,0.8-0.3,1.4,0.4,1.8c0.5,0.3,1.3,0.4,2.1,0.3c1.5-0.1,2.6-0.5,3.2-0.7
	c0.8-0.3,1.8-0.8,2.7-1.4c1.7-1.2,2.7-3,2.6-5.4c-0.1-1.3-0.5-2.6-1-3.8c0.2-0.2,0.3-0.4,0.5-0.7C65.9,57.2,68,53,68,53
	s0.2,1.3,0.8,3.5c0.3,1.1,1,2.3,1.5,3.5c-2.5,2-4,4.4-4.6,5.9c-1,2.9-0.2,4.1,1.2,4.5c0.7,0.1,1.6-0.2,2.3-0.5
	c0.9-0.3,1.9-0.8,2.9-1.5c1.7-1.2,3.3-3,3.2-5.3c-0.1-1.1-0.3-2.1-0.7-3.1c2.1-0.9,4.9-1.4,8.3-1c7.5,0.9,9,5.5,8.7,7.5
	c-0.3,1.9-1.8,3-2.4,3.4c-0.5,0.3-0.7,0.4-0.6,0.7c0.1,0.4,0.3,0.3,0.8,0.3c0.6-0.1,3.9-1.6,4.1-5.2C93.7,60.9,89.3,55.8,81.5,55.9
	L81.5,55.9z M23.9,75.3c-2.5,2.7-5.9,3.7-7.4,2.9c-1.6-0.9-1-4.9,2.1-7.8c1.8-1.7,4.2-3.4,5.8-4.4c0.4-0.2,0.9-0.5,1.5-0.9
	C26,65,26,65,26,65c0.1-0.1,0.3-0.2,0.4-0.2C27.6,68.9,26.5,72.5,23.9,75.3L23.9,75.3z M41.9,63c-0.9,2.1-2.7,7.5-3.8,7.2
	c-0.9-0.3-1.5-4.3-0.2-8.4c0.7-2,2.1-4.5,2.9-5.4c1.4-1.5,2.8-2,3.2-1.4C44.6,55.9,42.5,61.7,41.9,63z M56.8,70.1
	c-0.4,0.2-0.7,0.3-0.9,0.2c-0.1-0.1,0.2-0.3,0.2-0.3s1.9-2,2.6-2.9c0.4-0.5,0.9-1.2,1.5-1.9v0.2C60.2,67.9,57.9,69.5,56.8,70.1z
	 M68.3,67.5c-0.3-0.2-0.2-0.8,0.7-2.8c0.4-0.8,1.2-2.1,2.6-3.3c0.2,0.5,0.3,1,0.3,1.4C71.8,65.9,69.6,67.1,68.3,67.5z"/>
</svg>
