<!--
/** SVG Name: Gregory Jacobs' Skills Program Knowledge - Animated SVG Icons
*** Description: Simple SVG Icon Animation
*** Version: 1.0
*** Author: Gregory Jacobs
*** License: GPL2
**/
-->
<svg version="1.1" id="Layer_1" xmlns="http://www.w3.org/2000/svg" xmlns:xlink="http://www.w3.org/1999/xlink" x="0px" y="0px"
	 viewBox="0 0 100 100" style="enable-background:new 0 0 100 100;" xml:space="preserve">
<style type="text/css">
	.st0{
		fill:none;
		stroke:#59B7A9;
		stroke-width:2;
		stroke-miterlimit:10;
	}
	.st1{
		fill:none;
		stroke:#59B7A9;
		stroke-width:2;
		stroke-linecap:round;
		stroke-miterlimit:0;
	}
	.st0,
	.st1 {
		stroke-dasharray: 600;
		stroke-dashoffset: 0;
		-webkit-animation: 	animate 15s 0s infinite alternate;
		-o-animation: 		animate 15s 0s infinite alternate;
		-moz-animation: 	animate 15s 0s infinite alternate;
		animation: 			animate 15s 0s infinite alternate;
	}		
	@-webkit-keyframes animate {
		0% {
			stroke-dashoffset:600;
		}
		100% {
			stroke-dashoffset:0;
		}
	}
	@keyframes animate {
		0% {
			stroke-dashoffset:600;
		}		
		100% {
			stroke-dashoffset:0;
		}
	}	
</style>
<path id="border" class="st0" d="M89,99H11C5.5,99,1,94.5,1,89V11C1,5.5,5.5,1,11,1h78c5.5,0,10,4.5,10,10v78C99,94.5,94.5,99,89,99
	z"/>
<g>
	<path class="st1" d="M89.4,35.7c-14,18.7-27.9,37.3-42,56.1C33.4,73,19.5,54.4,5.5,35.6c3.9-4.4,7.6-9.2,11.9-13.2l21-6.5h18.9
		l21.4,6.5L89.4,35.7z"/>
	<path class="st1" d="M27.8,52c6.6,11.7,13,23.1,19.7,35C54.2,75,60.6,63.6,67.1,52C53.9,52,41.1,52,27.8,52z"/>
	<path class="st1" d="M68.2,47.4c-2.8-5-5.4-9.6-8.1-14.2c-0.3-0.5-1.4-0.9-2.2-0.9c-7-0.1-13.9-0.1-20.9,0c-0.9,0-2.1,0.8-2.6,1.7
		c-2.1,3.5-4.1,7-6,10.6c-0.5,0.8-0.9,1.7-1.5,2.8C40.8,47.4,54.2,47.4,68.2,47.4z"/>
	<path class="st1" d="M39,28.9h18.3l13.9-5.5c-6.3-2.7-14.3-5-14.3-5H38.8c0,0-9.7,3.3-14.5,5L39,28.9z"/>
	<polygon class="st1" points="21.4,45 30.4,31.9 18.8,26.4 10.1,36.2 	"/>
	<path class="st1" d="M73.4,45c3.9-3,7.5-5.8,11.3-8.7c-2.6-3.6-5.1-6.9-7.6-10.4c-4.3,2-8.3,4-12.6,6C67.4,36.3,70.3,40.5,73.4,45z
		"/>
	<path class="st1" d="M15.9,44.8c-0.2,0.2-0.4,0.4-0.7,0.6c7.3,10.1,14.7,20.3,22,30.4C33,67.9,28.5,59.4,23.5,52
		C21.5,49,18.5,47.4,15.9,44.8z"/>
	<path class="st1" d="M79.5,45.6c-3.5,2.2-7.9,4.6-10,8.3c-3.7,6.6-6.8,12.7-10.8,19.1c-0.4,0.6-0.7,1.3-1.1,1.9
		c0.1,0.1,0.3,0.2,0.4,0.2C65.2,65.3,72.3,55.4,79.5,45.6z"/>
</g>
</svg>
