<!--
/** SVG Name: Gregory Jacobs' Skills Program Knowledge - Animated SVG Icons
*** Description: Simple SVG Icon Animation
*** Version: 1.0
*** Author: Gregory Jacobs
*** License: GPL2
**/
-->
<svg version="1.1" id="Layer_1" xmlns="http://www.w3.org/2000/svg" xmlns:xlink="http://www.w3.org/1999/xlink" x="0px" y="0px"
	 viewBox="0 0 100 100" style="enable-background:new 0 0 100 100;
		" xml:space="preserve">
<style type="text/css">
	.st0{
		fill:none;
		stroke:#59B7A9;
		stroke-width:2;
		stroke-miterlimit:10;
	}
	.st1{
		fill:none;
		stroke:#59B7A9;
		stroke-width:4;
		stroke-linecap:round;
		stroke-linejoin:round;		
		stroke-miterlimit:10;
	}
	.st0,
	.st1 {
		stroke-dasharray: 600;
		stroke-dashoffset: 0;
		-webkit-animation: 	animate 15s 0s infinite alternate;
		-o-animation: 		animate 15s 0s infinite alternate;
		-moz-animation: 	animate 15s 0s infinite alternate;
		animation: 			animate 15s 0s infinite alternate;
	}		
	@-webkit-keyframes animate {
		0% {
			stroke-dashoffset:600;
		}
		100% {
			stroke-dashoffset:0;
		}
	}
	@keyframes animate {
		0% {
			stroke-dashoffset:600;
		}		
		100% {
			stroke-dashoffset:0;
		}
	}	
</style>
<path id="border" class="st0" d="M89,99H11C5.5,99,1,94.5,1,89V11C1,5.5,5.5,1,11,1h78c5.5,0,10,4.5,10,10v78C99,94.5,94.5,99,89,99
	z"/>
<g>
	<path class="st1" d="M23.7,66.2v8.6c0,0.2,0,0.3,0.1,0.5c1.2,5.1,12.3,9,26.1,9c13.8,0,24.8-3.8,26.1-8.9c0.1-0.2,0.1-0.3,0.1-0.5
		v-8.6C71.9,69.2,63,71.6,50,71.6C37,71.6,28.1,69.2,23.7,66.2z"/>
	<path class="st1" d="M52.7,55.1c-0.9,0-1.8,0-2.7,0c-0.9,0-1.8,0-2.7,0c-7.7-0.2-13.9-1.3-18.3-2.9c-2.1-0.7-3.9-1.5-5.2-2.5v7.5
		v0.5v0.5v1.4c3,3.1,13,6,26.3,6s23.3-2.9,26.3-6v-1.4v-0.5v-0.5v-7.5c-1.4,1-3.2,1.8-5.3,2.5C66.6,53.8,60.4,54.9,52.7,55.1z"/>
	<path class="st1" d="M23.7,33.2v7.5v0.5v0.5v1.4c2.8,2.9,11.6,5.6,23.4,6c0.1,0,0.2,0,0.4,0c0.3,0,0.7,0,1,0c0.5,0,1,0,1.5,0
		c0.5,0,1,0,1.5,0c0.3,0,0.7,0,1,0c0.1,0,0.2,0,0.4,0c11.8-0.4,20.6-3.1,23.4-6v-1.4v-0.5v-0.5v-7.5c-5.1,3.5-15.9,5.4-26.3,5.4
		S28.9,36.7,23.7,33.2z"/>
	<path class="st1" d="M76.1,23.7c-1.2-4.5-10.2-9-26.1-9c-15.8,0-24.9,4.4-26.1,8.9c-0.1,0.2-0.2,0.3-0.2,0.5v0.5v1.9
		c3,3.1,12.9,6,26.3,6s23.3-2.9,26.3-6v-1.9v-0.5C76.3,24,76.2,23.9,76.1,23.7z"/>
</g>
</svg>
