<!--
/** SVG Name: Gregory Jacobs' Skills Program Knowledge - Animated SVG Icons
*** Description: Simple SVG Icon Animation
*** Version: 1.0
*** Author: Gregory Jacobs
*** License: GPL2
**/
-->
<svg version="1.1" id="Layer_1" xmlns="http://www.w3.org/2000/svg" xmlns:xlink="http://www.w3.org/1999/xlink" x="0px" y="0px"
	 viewBox="0 0 100 100" style="enable-background:new 0 0 100 100;" xml:space="preserve">
<style type="text/css">
	.st0{
		fill:none;
		stroke:#59B7A9;
		stroke-width:2;
		stroke-miterlimit:10;
	}
	.st1{fill:none;
		stroke:#59B7A9;
		stroke-width:4;
		stroke-miterlimit:10;
	}
	.st2{fill:none;
		stroke:#59B7A9;
		stroke-width:2;
		stroke-linecap:round;
		stroke-linejoin:round;
		stroke-miterlimit:10;
	}
	.st0,
	.st1,
	.st2 {
		stroke-dasharray: 600;
		
		stroke-dashoffset: 0;
		
		-webkit-animation: 	animate 15s 0s infinite alternate;
		
		-o-animation: 		animate 15s 0s infinite alternate;
		
		-moz-animation: 	animate 15s 0s infinite alternate;
		
		animation: 			animate 15s 0s infinite alternate;
		
	}		
	@-webkit-keyframes animate {
		0% {
			stroke-dashoffset:600;
		
		}
		100% {
			stroke-dashoffset:0;
		
		}
	}
	@keyframes animate {
		0% {
			stroke-dashoffset:600;
		
		}		
		100% {
			stroke-dashoffset:0;
		
		}
	}		
</style>
<path id="border" class="st0" d="M89,99H11C5.5,99,1,94.5,1,89V11C1,5.5,5.5,1,11,1h78c5.5,0,10,4.5,10,10v78C99,94.5,94.5,99,89,99
	z"/>
<path class="st1" d="M48.1,13.8h2.6c8,0,15.7,3.2,23.2,9.7c7.4,7.6,11.1,16.3,11.1,26.1c0,11.1-4.7,20.6-14,28.5
	c-6.8,4.9-14.1,7.3-21.9,7.3c-10.2,0-19.2-4.1-26.9-12.2c-5.9-7.3-8.8-14.6-8.8-22.2v-2.6c0-8.9,3.7-17.2,11-24.9
	c0.2,0,1.1-0.8,2.8-2.4C34.1,16.3,41.1,13.8,48.1,13.8z"/>
<path class="st2" d="M21.1,37.1h0.3l14.6,40.1h-0.1c-6-2.8-10.8-7.5-14.3-14.2c-2-4.5-3-9.1-3-13.5C18.4,45.5,19.3,41.3,21.1,37.1z
	 M29.7,25.8c-3.2,3-5.3,5.2-6.2,6.8v0.3h0.5l10-0.4c0.6,0.3,0.9,0.7,0.9,1.2V34c0,0.7-1.5,1-4.5,1h-0.1v0.1l11.1,33.3h0.1l6.7-20.1
	l-4.7-13.2L43,35.1c-2.5,0-3.8-0.5-3.8-1.4h0.1c0-0.5,0.2-0.9,0.7-1.2l8.7,0.4l8.5-0.4c0.4,0.1,0.7,0.4,0.9,1v0.4
	c0,0.8-1.5,1.2-4.6,1.2h-0.1l7.9,23.3c2.1,6.6,3.2,9.8,3.4,9.8l2.1-7.2c2.2-6.2,3.3-10.4,3.3-12.7c0-2.7-0.6-5.2-1.8-7.6
	c-2.4-3.7-3.7-6.4-3.7-8.1v-1.2c1-3,2.7-4.5,5.1-4.5l0.4,0.1V27c-6-5.4-12.9-8.1-20.7-8.1C42.1,18.8,35.6,21.1,29.7,25.8z M40.5,79
	c2.7,0.9,5.6,1.3,8.7,1.3c3.4,0,6.8-0.6,10.2-1.7h0.1L53.3,62c-2.3-6.6-3.5-9.8-3.7-9.8L40.5,79z M76.3,38c0,1.9-0.3,4.2-0.9,6.7
	L64.6,76v0.1h0.1c1.5-0.9,3.1-2,4.7-3.4c7-6.5,10.5-14.2,10.5-23.1c0-5-1.2-9.9-3.7-14.8H76L76.3,38z"/>
</svg>
